<?xml version="1.0" standalone="no"?>
<!DOCTYPE svg PUBLIC "-//W3C//DTD SVG 20010904//EN"
 "http://www.w3.org/TR/2001/REC-SVG-20010904/DTD/svg10.dtd">
<svg version="1.0" xmlns="http://www.w3.org/2000/svg"
 width="1002.000000pt" height="560.000000pt" viewBox="0 0 1002.000000 560.000000"
 preserveAspectRatio="xMidYMid meet">

<g transform="translate(0.000000,560.000000) scale(0.100000,-0.100000)"
fill="#000000" stroke="none">
<path d="M4685 5063 c-38 -2 -84 -5 -101 -8 -48 -8 -86 -71 -113 -183 -12 -52
-28 -104 -36 -115 -7 -12 -23 -53 -33 -92 -26 -92 -58 -180 -87 -235 -13 -25
-25 -66 -28 -92 -3 -29 -14 -61 -28 -80 -26 -36 -43 -80 -54 -143 -4 -22 -17
-62 -30 -90 -12 -27 -30 -76 -39 -107 -10 -32 -20 -58 -24 -58 -26 2 -94 122
-106 188 -3 18 -22 65 -41 104 -19 40 -35 87 -35 106 0 19 -9 49 -20 66 -10
18 -26 57 -34 87 -18 69 -26 90 -41 109 -6 8 -20 44 -30 80 -10 36 -24 72 -30
80 -7 8 -17 31 -23 50 -25 86 -45 145 -51 150 -4 3 -15 18 -25 34 l-18 29
-107 -7 c-73 -5 -126 -14 -171 -31 -36 -13 -117 -33 -180 -44 -121 -20 -236
-58 -251 -82 -14 -22 -11 -31 25 -87 19 -29 37 -68 40 -86 4 -18 17 -43 31
-56 14 -13 25 -28 25 -34 0 -25 22 -86 35 -100 8 -8 24 -37 35 -66 11 -29 32
-67 45 -84 14 -18 25 -44 25 -57 0 -13 11 -41 25 -61 14 -20 32 -58 41 -85 9
-26 22 -55 29 -63 7 -8 22 -42 34 -74 12 -33 30 -71 40 -85 10 -14 21 -37 25
-51 9 -31 27 -70 41 -90 6 -8 19 -40 29 -70 11 -30 24 -62 30 -70 17 -21 33
-60 41 -94 3 -16 17 -43 31 -61 13 -17 24 -38 24 -46 0 -8 18 -49 40 -92 22
-42 40 -82 40 -88 0 -6 6 -25 14 -42 27 -60 38 -108 31 -135 -4 -15 -8 -151
-10 -302 -2 -151 -9 -320 -14 -375 -17 -163 -14 -259 8 -286 17 -21 25 -23
105 -21 47 1 119 9 159 17 39 8 149 17 242 20 173 5 242 15 255 35 4 6 7 254
7 551 l1 540 31 59 c17 33 31 69 31 82 0 13 18 59 40 103 22 44 40 85 40 91 0
6 13 35 30 65 16 30 30 65 30 77 0 25 29 82 41 82 4 0 10 12 13 28 15 63 31
112 37 112 4 0 16 30 28 68 11 37 32 84 46 104 14 20 25 43 25 50 0 25 35 123
53 148 9 13 17 30 17 36 0 6 13 35 29 65 15 30 32 76 36 104 8 55 33 125 45
125 10 0 77 137 81 165 2 11 0 29 -4 40 -6 18 -17 20 -129 22 -136 2 -253 12
-244 21 3 3 31 9 62 13 52 7 102 37 87 52 -2 3 9 13 26 22 17 8 31 22 31 30 0
21 9 18 60 -21 90 -68 86 -66 112 -53 13 7 30 15 38 19 22 11 48 60 56 107 10
64 -2 67 -256 68 -118 0 -246 -1 -285 -2z m-159 -748 c4 -8 13 -15 20 -15 8 0
17 7 20 15 9 23 24 18 24 -9 0 -19 -6 -25 -32 -28 -18 -3 -42 -2 -54 1 -17 5
-20 10 -13 29 10 25 27 29 35 7z"/>
<path d="M5338 5007 c-22 -30 -23 -40 -20 -177 1 -80 6 -158 12 -175 5 -18 8
-544 7 -1294 -2 -1456 -16 -1294 111 -1305 42 -4 102 -13 132 -21 30 -8 172
-23 315 -35 143 -11 287 -25 320 -30 117 -19 348 -29 445 -19 52 5 142 13 200
19 58 5 123 14 145 19 22 6 56 11 75 11 19 0 58 12 85 25 28 14 54 25 59 25
18 0 136 62 136 71 0 5 6 9 14 9 11 0 58 46 138 137 10 12 27 44 37 70 9 26
27 66 38 89 42 80 50 413 13 564 -19 78 -61 183 -89 218 -16 20 -31 48 -34 62
-4 14 -20 41 -37 60 -78 88 -131 140 -141 140 -7 0 -21 10 -33 23 -46 48 -135
107 -163 107 -24 0 -73 30 -73 44 0 25 58 64 110 75 29 6 61 16 73 22 25 13
127 110 127 120 0 4 17 36 38 71 l37 63 -1 111 c-2 109 -15 174 -41 202 -7 7
-13 21 -13 30 0 19 -61 122 -72 122 -4 0 -8 5 -8 11 0 19 -170 179 -212 200
-21 11 -38 23 -38 27 0 5 -19 16 -42 26 -24 11 -50 24 -58 31 -8 7 -37 20 -64
28 -27 9 -63 27 -80 40 -17 13 -58 31 -91 41 -33 11 -85 29 -116 42 -31 13
-70 24 -86 24 -17 0 -66 12 -109 27 -44 14 -115 30 -159 34 -152 13 -300 30
-360 39 -33 6 -160 10 -282 9 l-223 -1 -22 -31z m132 -217 c22 -12 17 -36 -12
-51 -15 -8 -24 -7 -39 7 -18 16 -18 18 -3 36 20 21 28 22 54 8z m545 -149 c6
-11 -69 -25 -105 -19 -13 1 -25 9 -28 16 -5 15 123 18 133 3z m-151 -82 c-7
-12 -65 -11 -84 1 -11 7 0 9 37 8 29 0 50 -5 47 -9z m372 -149 c96 -10 165
-27 179 -43 6 -7 28 -20 50 -30 42 -19 117 -84 135 -116 14 -27 12 -102 -3
-121 -24 -30 -105 -78 -155 -91 -41 -10 -85 -10 -213 -2 -218 14 -204 -3 -200
243 1 69 6 132 10 139 15 23 55 40 86 35 17 -3 67 -9 111 -14z m189 -964 c39
-9 93 -27 120 -41 28 -14 55 -25 61 -25 11 0 24 -14 93 -95 40 -47 51 -77 51
-138 0 -81 -19 -113 -87 -144 -42 -19 -57 -33 -65 -56 l-11 -30 -20 24 c-16
20 -31 25 -101 31 -180 15 -304 28 -351 38 -76 16 -85 44 -85 260 l0 169 28
16 c22 13 51 15 162 11 74 -3 167 -12 205 -20z m108 -1029 c-6 -10 -99 -4
-110 7 -11 11 18 26 50 26 22 0 27 5 27 23 0 13 3 27 7 31 9 9 34 -74 26 -87z"/>
<path d="M8429 4908 c-31 -26 -89 -118 -139 -224 -16 -33 -36 -66 -44 -73 -9
-8 -25 -32 -36 -55 -11 -22 -29 -54 -39 -71 -23 -37 -35 -95 -20 -95 6 0 26
-7 45 -16 l35 -17 -27 -13 c-24 -13 -28 -12 -48 11 -12 14 -29 25 -38 25 -22
0 -111 30 -118 39 -12 16 -56 41 -73 41 -11 0 -33 6 -50 14 -61 26 -88 36 -96
36 -25 0 -31 -62 -31 -333 0 -252 2 -284 18 -303 23 -28 110 -63 190 -78 18
-3 39 -12 45 -19 64 -70 58 -42 64 -308 3 -134 4 -269 3 -299 0 -30 -2 -148
-4 -263 -2 -114 -6 -210 -9 -213 -3 -4 -26 -9 -51 -11 -34 -4 -55 0 -86 16
-22 12 -61 26 -87 31 -38 9 -49 8 -64 -6 -17 -16 -19 -35 -19 -215 0 -157 3
-207 16 -238 14 -35 14 -42 1 -63 -12 -18 -15 -65 -16 -229 -2 -236 -4 -228
89 -249 30 -6 89 -23 130 -36 41 -13 104 -27 140 -30 36 -3 85 -15 110 -26 25
-12 95 -31 155 -43 118 -24 241 -62 307 -96 23 -12 66 -25 97 -29 31 -4 81
-19 112 -34 77 -35 144 -49 169 -36 19 10 20 24 21 313 2 491 0 549 -22 570
-10 9 -27 17 -38 17 -29 0 -85 28 -167 82 l-71 47 -10 88 c-6 48 -8 139 -5
201 3 76 1 126 -8 151 -9 28 -9 51 -1 92 5 30 13 135 16 233 6 194 7 197 65
213 18 5 44 -4 101 -35 77 -42 122 -52 135 -31 3 6 6 133 5 282 -1 301 0 300
-70 311 -21 3 -47 17 -61 31 -13 14 -30 25 -37 25 -8 0 -35 12 -61 26 -25 14
-67 34 -93 44 -26 10 -59 30 -74 44 -15 14 -35 26 -44 26 -9 0 -34 11 -56 25
-22 14 -64 36 -92 50 -29 13 -53 27 -53 30 0 14 66 35 112 35 42 0 62 6 98 30
25 16 50 30 56 30 6 0 38 18 70 40 33 22 63 40 68 40 4 0 17 11 27 24 11 14
30 28 42 32 37 11 147 87 147 102 0 7 -16 20 -35 28 -19 8 -35 18 -35 22 0 12
-55 42 -77 42 -10 0 -42 18 -71 40 -29 22 -55 40 -59 40 -3 0 -16 11 -29 25
-13 14 -45 32 -71 41 -26 9 -55 21 -63 28 -8 6 -31 20 -50 30 -19 11 -40 26
-45 33 -15 20 -77 27 -96 11z m-53 -603 c18 -14 18 -14 -11 -16 -39 -3 -66 0
-85 7 -12 5 -11 8 5 14 32 13 69 11 91 -5z m-169 -51 c11 -29 -11 -49 -53 -50
-49 0 -104 24 -83 37 8 5 28 9 44 9 17 0 37 5 45 10 22 14 40 12 47 -6z m-77
-74 c0 -5 -4 -10 -10 -10 -5 0 -10 5 -10 10 0 6 5 10 10 10 6 0 10 -4 10 -10z
m300 -470 c0 -15 -39 -32 -60 -25 -21 7 -25 17 -13 28 10 11 73 8 73 -3z m244
-1389 c10 -16 -5 -41 -24 -41 -20 0 -30 17 -22 38 5 14 38 16 46 3z m-364
-141 c13 -9 13 -11 0 -20 -16 -11 -159 -14 -184 -4 -34 13 -13 23 52 27 37 2
78 4 92 5 14 1 32 -3 40 -8z"/>
<path d="M2470 4588 c-14 -6 -38 -13 -55 -17 -20 -5 -31 -15 -36 -31 -6 -22
-7 -23 -8 -4 -2 50 -62 59 -161 25 -33 -12 -91 -25 -128 -31 -55 -7 -72 -14
-93 -38 -31 -35 -76 -52 -135 -52 -24 0 -61 -6 -81 -14 -21 -8 -55 -17 -75
-21 -20 -3 -58 -21 -85 -39 -26 -18 -62 -36 -80 -39 -18 -4 -50 -18 -73 -32
-22 -14 -44 -25 -50 -25 -17 0 -182 -90 -214 -116 -17 -13 -39 -24 -50 -24
-12 0 -38 -16 -59 -35 -21 -19 -46 -35 -56 -35 -9 0 -32 -11 -51 -25 -19 -14
-54 -35 -77 -46 -24 -11 -43 -24 -43 -29 0 -5 -19 -17 -42 -29 -74 -35 -73
-34 -69 -321 3 -229 5 -257 22 -278 18 -23 15 -49 -9 -86 -10 -16 -10 -75 0
-335 5 -128 13 -244 18 -256 5 -14 5 -26 -1 -32 -9 -9 -24 -400 -21 -513 1
-19 3 -93 5 -165 2 -71 9 -143 16 -158 16 -42 13 -85 -8 -108 -15 -16 -19 -42
-24 -132 -6 -135 2 -157 61 -157 21 0 42 4 48 8 5 5 37 19 72 32 34 12 65 27
68 31 3 5 29 9 58 9 45 0 61 6 111 41 53 37 65 41 134 45 42 3 80 9 86 15 5 5
17 9 26 9 9 0 37 9 61 20 42 18 46 23 50 65 3 24 1 113 -4 197 -11 167 -12
196 -9 278 1 30 -3 126 -9 213 -10 156 -10 157 12 189 30 42 45 58 55 58 4 0
28 14 52 30 24 17 53 30 65 30 12 0 56 9 98 20 84 21 112 15 153 -30 18 -19
17 -20 -3 -20 -32 0 -42 -28 -28 -80 19 -69 52 -132 85 -164 21 -19 31 -39 31
-58 0 -16 9 -35 21 -46 34 -28 77 -96 95 -148 8 -27 26 -65 38 -84 62 -96 72
-110 78 -110 4 0 12 -17 17 -38 15 -52 30 -69 73 -76 33 -6 40 -3 64 24 27 30
54 40 54 19 0 -16 289 -1 355 18 28 8 73 18 100 23 137 26 154 32 160 49 7 24
-9 64 -51 128 -19 28 -34 56 -34 61 0 5 -7 15 -15 22 -13 11 -45 61 -102 162
-12 21 -33 52 -47 69 -14 17 -26 35 -26 41 0 5 -13 27 -30 48 -16 21 -30 41
-30 45 0 3 -14 20 -30 37 -17 16 -42 55 -57 86 -14 32 -29 59 -33 62 -4 3 -15
22 -25 43 -9 20 -21 37 -25 37 -5 0 -19 18 -31 40 -20 36 -27 40 -61 40 l-38
0 0 51 0 50 50 21 c28 11 50 24 50 29 0 5 19 18 43 30 23 12 67 46 97 75 30
30 66 61 80 71 14 9 28 22 32 28 4 7 25 34 48 61 22 27 40 54 40 60 0 6 9 19
21 30 12 10 30 39 42 64 11 25 26 52 33 60 7 9 21 45 30 80 9 36 25 92 36 125
48 142 28 432 -38 557 -8 14 -14 31 -14 38 0 30 -105 145 -170 184 -32 21
-150 69 -229 95 -42 14 -88 13 -121 -1z m-89 -165 c-12 -26 -13 -26 -23 -9 -7
13 -7 30 3 59 l14 41 9 -32 c6 -22 5 -41 -3 -59z m-581 -108 c0 -14 -13 -22
-65 -40 l-20 -7 20 -8 c11 -4 24 -4 30 1 5 5 13 9 17 9 14 0 9 -15 -12 -38
-17 -18 -30 -21 -82 -20 -60 2 -61 2 -37 19 13 10 32 25 42 33 9 9 20 16 23
16 3 0 15 11 26 25 21 28 58 34 58 10z m-136 -130 c6 -16 -26 -55 -44 -55 -16
0 -12 32 7 52 20 22 29 23 37 3z m794 -519 l-3 -485 30 -9 c29 -10 29 -10 4
-11 -14 -1 -30 -6 -36 -12 -22 -22 -33 1 -27 59 4 37 0 81 -10 125 -9 38 -16
112 -16 166 l0 98 -42 53 c-51 64 -43 88 33 104 15 3 31 14 35 23 5 10 9 95
11 188 2 204 1 185 14 185 7 0 10 -141 7 -484z m-873 434 c-10 -11 -20 -18
-23 -15 -7 6 18 35 31 35 5 0 2 -9 -8 -20z m-65 -70 c-6 -11 -12 -20 -14 -20
-2 0 -2 9 1 20 3 11 9 20 15 20 5 0 4 -9 -2 -20z m-66 -4 c-3 -8 0 -24 6 -36
18 -33 -3 -49 -58 -48 l-47 2 45 47 c46 49 63 60 54 35z m-59 -107 c8 -12 -22
-49 -40 -49 -7 0 -23 -16 -36 -35 -27 -39 -46 -48 -28 -12 14 26 81 105 91
106 4 1 10 -4 13 -10z m655 -78 c0 -5 19 -16 43 -23 37 -13 44 -20 56 -59 8
-24 19 -47 24 -51 7 -4 3 -32 -11 -81 -12 -42 -22 -88 -22 -104 0 -43 -80
-172 -107 -173 -7 0 -13 -4 -13 -10 0 -5 -6 -10 -13 -10 -7 0 -26 -13 -42 -30
-16 -16 -35 -30 -42 -30 -20 0 -84 -35 -110 -59 -15 -14 -35 -21 -62 -21 -22
0 -46 -7 -55 -15 -8 -8 -19 -15 -24 -15 -6 0 -31 -9 -57 -20 -37 -16 -51 -18
-68 -8 -47 25 -47 25 -47 265 l0 229 38 40 c45 47 85 74 111 74 11 0 26 7 35
15 8 8 17 15 21 15 3 0 21 10 38 23 18 13 43 24 57 25 14 1 48 8 75 16 58 16
175 20 175 7z m-780 -56 c0 -12 -33 -55 -41 -55 -16 0 -22 30 -9 45 12 14 50
21 50 10z m-153 -181 c-20 -33 -146 -154 -159 -154 -11 0 -1 71 11 82 12 11
13 10 8 -4 -12 -33 21 -19 73 31 29 28 49 54 46 60 -10 16 -36 1 -42 -25 -7
-27 -39 -50 -49 -34 -11 18 46 90 79 99 51 14 64 -7 33 -55z m-194 -159 c18
-13 18 -15 -5 -45 -19 -27 -24 -29 -27 -13 -2 10 -8 24 -13 31 -7 8 -7 17 2
27 15 18 20 18 43 0z m-73 -115 c0 -5 -4 -10 -10 -10 -5 0 -10 5 -10 10 0 6 5
10 10 10 6 0 10 -4 10 -10z m917 -232 c-3 -7 -5 -2 -5 12 0 14 2 19 5 13 2 -7
2 -19 0 -25z m613 -74 c0 -14 -4 -23 -10 -19 -5 3 -10 15 -10 26 0 10 5 19 10
19 6 0 10 -12 10 -26z m-596 -81 c4 -32 10 -76 12 -99 4 -30 2 -44 -11 -54
-15 -12 -19 -12 -30 3 -7 10 -30 23 -51 29 l-39 11 35 12 c40 13 59 49 60 113
0 61 16 52 24 -15z m461 -132 c0 -149 1 -153 23 -165 22 -12 22 -13 4 -29 -18
-17 -20 -17 -38 0 -17 17 -19 32 -16 186 2 126 6 167 15 164 9 -3 12 -46 12
-156z m-255 103 c11 -12 10 -18 -4 -32 -16 -16 -18 -16 -31 2 -11 14 -12 23
-4 33 15 17 24 16 39 -3z m428 -55 c17 9 21 7 27 -22 4 -17 9 -64 12 -104 3
-43 10 -76 18 -83 11 -9 11 -14 -5 -30 -15 -15 -27 -17 -79 -11 -74 9 -97 25
-57 41 15 5 41 10 57 10 24 0 29 4 29 23 0 29 -19 54 -45 59 -17 3 -20 10 -18
53 1 28 2 59 2 69 1 18 2 18 20 2 15 -14 24 -15 39 -7z m-1174 -217 c8 -13
-69 -29 -95 -20 -19 7 -21 11 -9 18 18 12 97 13 104 2z m-283 -14 c-29 -6 -51
-6 -65 0 -16 8 -7 11 44 10 l65 0 -44 -10z m329 -383 l25 -13 -28 -11 c-37
-14 -83 -13 -129 3 l-38 13 -5 -31 c-2 -17 -6 -44 -7 -59 -6 -55 -23 -31 -26
35 l-3 68 60 -2 c34 -1 64 1 68 5 11 11 56 7 83 -8z m-180 -534 c0 -12 -20
-25 -27 -18 -7 7 6 27 18 27 5 0 9 -4 9 -9z m87 -67 c-3 -3 -12 -4 -19 -1 -8
3 -5 6 6 6 11 1 17 -2 13 -5z"/>
<path d="M2392 2800 c0 -14 2 -19 5 -12 2 6 2 18 0 25 -3 6 -5 1 -5 -13z"/>
<path d="M2795 1760 c-16 -4 -88 -8 -160 -9 -119 -2 -250 -23 -271 -44 -4 -3
-4 -18 0 -32 6 -22 12 -25 51 -25 l45 0 1 -62 c0 -35 0 -130 -1 -213 -2 -147
-9 -181 -36 -171 -19 7 -51 -29 -58 -69 -10 -51 8 -97 51 -131 20 -16 41 -34
47 -39 6 -6 38 -21 71 -34 33 -14 63 -29 67 -35 4 -5 31 -10 60 -11 l53 0 3
112 c2 106 4 114 26 128 19 13 35 14 92 5 79 -12 125 -23 170 -41 26 -10 46
-9 120 5 84 17 194 59 194 74 0 4 11 19 24 33 13 14 30 41 39 60 21 45 31 154
19 206 -10 43 -64 134 -98 165 -47 41 -128 88 -154 88 -16 0 -41 5 -57 11 -15
6 -73 14 -128 19 -55 5 -109 11 -120 13 -11 3 -33 2 -50 -3z m84 -231 c37 -8
57 -19 80 -46 34 -40 38 -61 17 -102 -22 -42 -57 -53 -143 -45 -92 8 -113 29
-113 108 0 90 39 111 159 85z"/>
<path d="M3677 1750 c-163 -5 -179 -7 -189 -24 -13 -24 -14 -1104 -1 -1117 11
-11 112 -46 183 -65 67 -17 114 -18 143 -3 32 17 35 27 25 68 -5 20 -11 95
-14 166 l-5 130 42 27 c35 23 45 25 67 15 42 -17 59 -35 85 -91 14 -28 32 -58
41 -65 9 -7 16 -20 16 -28 0 -9 18 -48 40 -88 22 -40 40 -77 40 -83 0 -5 18
-37 41 -71 44 -65 73 -81 155 -81 22 0 45 -5 51 -11 16 -16 126 -17 145 -1 14
11 14 20 3 67 -7 30 -24 70 -39 89 -14 19 -26 40 -26 46 0 6 -16 33 -35 62
-19 28 -38 62 -42 77 -3 14 -19 44 -35 67 -16 22 -35 61 -43 87 -15 51 -13 55
45 80 37 16 61 34 126 98 31 30 44 53 53 92 15 69 17 212 3 262 -6 22 -13 51
-16 65 -7 34 -102 131 -151 155 -22 10 -47 24 -55 30 -28 21 -95 33 -220 40
-196 10 -243 11 -433 5z m396 -296 c61 -32 77 -54 77 -109 0 -60 -25 -106 -71
-129 -38 -19 -175 -22 -213 -5 -33 15 -36 27 -37 128 -1 82 0 86 28 108 24 19
40 23 106 23 53 0 88 -5 110 -16z"/>
<path d="M5100 1750 c-170 -9 -257 -26 -290 -57 -14 -13 -47 -43 -74 -68 -84
-75 -105 -172 -69 -324 17 -70 22 -79 88 -146 39 -40 80 -75 92 -79 13 -4 41
-23 64 -42 22 -19 49 -34 58 -34 17 0 62 -32 109 -78 19 -19 23 -30 18 -55 -3
-18 -16 -40 -29 -51 -33 -28 -174 -17 -255 19 -103 46 -145 27 -158 -73 -3
-20 -12 -61 -21 -90 -9 -32 -14 -75 -11 -107 4 -48 10 -59 44 -91 54 -52 86
-62 226 -75 151 -14 266 -1 383 44 66 25 91 41 142 93 35 35 63 71 63 81 0 10
12 36 25 58 22 35 25 52 25 128 0 78 -3 92 -25 125 -14 20 -25 44 -25 52 0 20
-77 100 -96 100 -3 0 -15 11 -25 24 -11 14 -30 28 -42 32 -37 11 -140 85 -175
124 -36 42 -34 64 7 108 23 24 63 28 209 23 65 -3 76 -1 98 20 23 22 24 27 24
159 0 166 0 165 -115 175 -44 3 -91 7 -105 9 -14 2 -86 0 -160 -4z m-87 -481
c36 -41 36 -87 0 -129 -24 -29 -30 -31 -67 -26 -72 11 -94 65 -59 146 17 37
21 40 58 40 33 0 46 -6 68 -31z"/>
<path d="M7138 1717 c-21 -17 -47 -54 -58 -82 -12 -27 -26 -56 -33 -63 -6 -8
-19 -37 -29 -64 -18 -52 -37 -76 -77 -97 -29 -16 -45 -3 -65 54 -8 24 -24 54
-35 66 -11 12 -23 36 -27 53 -8 38 -59 122 -87 141 -32 22 -1092 22 -1121 0
-21 -16 -34 -81 -35 -181 -1 -43 3 -54 27 -77 22 -21 38 -27 74 -27 59 0 105
-17 121 -44 9 -15 12 -132 12 -452 0 -361 2 -434 14 -448 16 -20 23 -19 146
13 44 11 96 21 116 21 71 0 69 -11 69 436 0 219 3 416 7 438 5 31 12 41 39 52
18 8 60 14 91 14 87 0 103 15 103 95 0 62 1 65 27 71 20 6 31 2 45 -16 10 -12
18 -32 18 -45 0 -12 11 -38 24 -58 14 -20 33 -55 44 -79 11 -24 29 -53 41 -65
11 -12 21 -26 21 -30 0 -5 13 -24 28 -43 16 -19 32 -46 35 -60 4 -14 22 -50
42 -80 l35 -54 0 -178 c0 -168 1 -178 20 -188 23 -13 60 -4 145 35 28 12 70
25 94 29 33 5 53 16 78 42 18 20 33 41 34 47 0 7 0 68 -1 137 -1 133 16 207
58 254 10 12 27 39 37 61 10 22 29 53 41 68 13 16 24 33 24 38 0 5 10 20 21
32 12 12 30 40 40 62 10 22 42 66 72 97 43 46 51 60 44 76 -12 26 -46 32 -176
32 -105 0 -106 -1 -143 -33z"/>
</g>
</svg>
